<?xml version="1.0" encoding="UTF-8"?>
<svg width="120px" height="24px" viewBox="0 0 120 24" version="1.1" xmlns="http://www.w3.org/2000/svg" xmlns:xlink="http://www.w3.org/1999/xlink">
    <!-- Generator: Sketch 52.5 (67469) - http://www.bohemiancoding.com/sketch -->
    <title>BrainFlix-Logo</title>
    <desc>Created with Sketch.</desc>
    <g id="BrainFlix" stroke="none" stroke-width="1" fill="none" fill-rule="evenodd">
        <g id="BrainFlix-Logo">
            <g>
                <path d="M46.171,13.526 L46.171,17.831 L47.935,17.831 C48.607,17.831 50.119,17.81 50.119,15.689 C50.119,14.345 49.615,13.526 48.019,13.526 L46.171,13.526 Z M46.171,7.331 L46.171,11.195 L48.292,11.195 C48.985,11.195 49.951,10.733 49.951,9.263 C49.951,8.15 49.195,7.331 48.124,7.331 L46.171,7.331 Z M48.607,20.162 L43,20.162 L43,5 L48.628,5 C51.043,5 53.038,5.693 53.038,8.927 C53.038,10.67 52.177,11.93 50.455,12.266 L50.455,12.308 C52.702,12.623 53.29,14.072 53.29,16.151 C53.29,19.994 49.951,20.162 48.607,20.162 Z M55.6253,9.557 L58.4393,9.557 L58.4393,10.922 L58.4813,10.922 C59.0273,9.704 60.0353,9.347 61.2323,9.347 L61.2323,11.993 C58.6283,11.825 58.5863,13.337 58.5863,14.387 L58.5863,20.162 L55.6253,20.162 L55.6253,9.557 Z M67.7466,15.038 C66.2766,15.101 65.1846,14.975 65.1846,16.865 C65.1846,17.621 65.3106,18.545 66.2766,18.545 C68.0196,18.545 67.7466,16.193 67.7466,15.038 Z M70.6446,12.896 L70.6446,18.188 C70.6446,18.839 70.7286,19.511 70.7916,20.162 L68.0406,20.162 L67.9146,18.755 L67.8726,18.755 C67.2426,19.847 66.3816,20.372 65.1006,20.372 C63.0426,20.372 62.2866,18.839 62.2866,16.991 C62.2866,13.484 64.9956,13.337 67.7466,13.379 L67.7466,12.56 C67.7466,11.657 67.6206,11.006 66.5496,11.006 C65.5206,11.006 65.4366,11.783 65.4366,12.623 L62.5386,12.623 C62.5386,11.342 62.9376,10.523 63.6306,10.04 C64.3026,9.536 65.2686,9.347 66.4026,9.347 C70.1616,9.347 70.6446,10.964 70.6446,12.896 Z M76.2979,9.557 L76.2979,20.162 L73.3369,20.162 L73.3369,9.557 L76.2979,9.557 Z M73.3369,5 L76.2979,5 L76.2979,7.331 L73.3369,7.331 L73.3369,5 Z M81.8672,9.557 L81.8672,10.628 L81.9092,10.628 C82.2032,10.145 82.5602,9.83 82.9592,9.641 C83.3792,9.431 83.8622,9.347 84.4082,9.347 C85.8152,9.347 87.0542,10.187 87.0542,11.657 L87.0542,20.162 L84.0932,20.162 L84.0932,12.854 C84.0932,11.909 83.9252,11.174 82.9802,11.174 C82.0352,11.174 81.8672,11.909 81.8672,12.854 L81.8672,20.162 L78.9062,20.162 L78.9062,9.557 L81.8672,9.557 Z M92.6445,20.162 L89.4735,20.162 L89.4735,5 L97.3485,5 L97.3485,7.331 L92.6445,7.331 L92.6445,11.216 L97.1385,11.216 L97.1385,13.547 L92.6445,13.547 L92.6445,20.162 Z M98.9488,5 L101.9098,5 L101.9098,20.162 L98.9488,20.162 L98.9488,5 Z M107.7311,9.557 L107.7311,20.162 L104.7701,20.162 L104.7701,9.557 L107.7311,9.557 Z M104.7701,5 L107.7311,5 L107.7311,7.331 L104.7701,7.331 L104.7701,5 Z M114.1614,16.445 L112.2084,20.162 L109.2684,20.162 L112.3974,14.597 L109.5204,9.557 L112.8384,9.557 L114.3924,12.77 L116.1774,9.557 L119.1384,9.557 L116.3034,14.639 L119.3484,20.162 L116.0094,20.162 L114.1614,16.445 Z" id="BrainFlix" fill="#000000"></path>
                <path d="M2.51759375,0.879272727 C7.31945625,0.293454545 12.1247188,0 16.9333812,0 C21.728975,0 26.5244625,0.291272727 31.3200563,0.873818182 C32.27705,0.990545455 33.0381188,1.75309091 33.1741188,2.73272727 C33.7247063,6.69927273 34,10.1105455 34,12.9665455 C34,15.7090909 33.746275,18.4505455 33.2387188,21.1930909 C33.0702062,22.1029091 32.3600313,22.8054545 31.4675313,22.9429091 C26.9095125,23.6476364 22.064725,24 16.9333812,24 C11.8176563,24 6.9901875,23.6498182 2.45108125,22.9494545 C1.5382875,22.8087273 0.81844375,22.0789091 0.66969375,21.144 C0.22323125,18.3370909 0,15.2890909 0,12 C0,8.712 0.223125,5.61381818 0.66926875,2.70545455 C0.81738125,1.74 1.5725,0.993818182 2.51759375,0.879272727 Z" id="Clip-10" fill="#0095FF"></path>
                <path d="M22.3863015,12.9937994 L14.5994386,16.8834399 C14.0523146,17.1565919 13.3881316,16.9334068 13.1159527,16.3837716 C13.0397204,16.2305399 13,16.0606527 13,15.8896551 L13,8.11037411 C13,7.4974476 13.4953436,7 14.1064185,7 C14.2774708,7 14.4461996,7.03997347 14.5994386,7.11658928 L22.3863015,11.0062298 C22.9333148,11.2793818 23.1561475,11.9456063 22.8838579,12.4941311 C22.7765353,12.710654 22.6018318,12.8860931 22.3863015,12.9937994 Z" id="Clip-13" fill="#FFFFFF"></path>
            </g>
        </g>
    </g>
</svg>