<svg width="25" height="24" viewBox="0 0 25 24" fill="none" xmlns="http://www.w3.org/2000/svg">
<path d="M20.3263 5.42885L16.4966 9.25858L17.8232 10.5852C18.3489 11.1109 17.9734 12.012 17.2308 12.012H13.4094C12.9505 12.012 12.5751 11.6365 12.5751 11.1776V7.33955C12.5751 6.59696 13.4762 6.2215 14.0018 6.74715L15.3285 8.07379L19.1582 4.24405C19.4836 3.91865 20.0092 3.91865 20.3346 4.24405C20.6517 4.5778 20.6517 5.10345 20.3263 5.42885ZM6.00026 19.7549L9.83 15.9252L11.1566 17.2518C11.6823 17.7775 12.5834 17.402 12.5834 16.6594V12.838C12.5834 12.3791 12.2079 12.0036 11.749 12.0036H7.91096C7.16837 12.0036 6.79291 12.9048 7.31856 13.4304L8.6452 14.757L4.81546 18.5868C4.49006 18.9122 4.49006 19.4378 4.81546 19.7632C5.14921 20.0803 5.67486 20.0803 6.00026 19.7549Z" fill="white"/>
</svg>
