<svg width="25" height="24" viewBox="0 0 25 24" fill="none" xmlns="http://www.w3.org/2000/svg">
<path d="M5.71427 14.2857C5.0857 14.2857 4.57141 14.8 4.57141 15.4286V18.8571C4.57141 19.4857 5.0857 20 5.71427 20H9.14284C9.77141 20 10.2857 19.4857 10.2857 18.8571C10.2857 18.2286 9.77141 17.7143 9.14284 17.7143H6.85713V15.4286C6.85713 14.8 6.34284 14.2857 5.71427 14.2857ZM5.71427 9.71429C6.34284 9.71429 6.85713 9.2 6.85713 8.57143V6.28571H9.14284C9.77141 6.28571 10.2857 5.77143 10.2857 5.14286C10.2857 4.51429 9.77141 4 9.14284 4H5.71427C5.0857 4 4.57141 4.51429 4.57141 5.14286V8.57143C4.57141 9.2 5.0857 9.71429 5.71427 9.71429ZM18.2857 17.7143H16C15.3714 17.7143 14.8571 18.2286 14.8571 18.8571C14.8571 19.4857 15.3714 20 16 20H19.4286C20.0571 20 20.5714 19.4857 20.5714 18.8571V15.4286C20.5714 14.8 20.0571 14.2857 19.4286 14.2857C18.8 14.2857 18.2857 14.8 18.2857 15.4286V17.7143ZM14.8571 5.14286C14.8571 5.77143 15.3714 6.28571 16 6.28571H18.2857V8.57143C18.2857 9.2 18.8 9.71429 19.4286 9.71429C20.0571 9.71429 20.5714 9.2 20.5714 8.57143V5.14286C20.5714 4.51429 20.0571 4 19.4286 4H16C15.3714 4 14.8571 4.51429 14.8571 5.14286Z" fill="white"/>
</svg>
