<svg width="25" height="24" viewBox="0 0 25 24" fill="none" xmlns="http://www.w3.org/2000/svg">
<path d="M5.13141 4.26C4.78474 4.60667 4.78474 5.16667 5.13141 5.51333L8.38474 8.76667L8.12697 9.03333H5.4603C4.97141 9.03333 4.57141 9.43333 4.57141 9.92222V13.4778C4.57141 13.9667 4.97141 14.3667 5.4603 14.3667H8.12697L11.0514 17.2911C11.6114 17.8511 12.5714 17.4511 12.5714 16.66V12.9533L16.287 16.6689C15.8514 16.9978 15.3803 17.2733 14.8647 17.4778C14.5447 17.6111 14.3492 17.9489 14.3492 18.2956C14.3492 18.9356 14.9981 19.3444 15.5847 19.1044C16.2959 18.8111 16.9625 18.42 17.5581 17.94L18.7492 19.1311C19.0959 19.4778 19.6559 19.4778 20.0025 19.1311C20.3492 18.7844 20.3492 18.2244 20.0025 17.8778L6.39363 4.26C6.04697 3.91333 5.48697 3.91333 5.13141 4.26ZM18.7936 11.7C18.7936 12.4289 18.6603 13.1311 18.4292 13.78L19.7892 15.14C20.287 14.1 20.5714 12.9356 20.5714 11.7C20.5714 8.29556 18.4381 5.38 15.4336 4.23333C14.9092 4.02889 14.3492 4.43778 14.3492 4.99778V5.16667C14.3492 5.50444 14.5714 5.79778 14.8914 5.92222C17.1759 6.84667 18.7936 9.08667 18.7936 11.7ZM11.0514 6.10889L10.9003 6.26L12.5714 7.93111V6.73111C12.5714 5.94 11.6114 5.54889 11.0514 6.10889ZM16.5714 11.7C16.5714 10.1267 15.6647 8.77556 14.3492 8.11778V9.70889L16.5536 11.9133C16.5625 11.8422 16.5714 11.7711 16.5714 11.7Z" fill="white"/>
</svg>
