<?xml version="1.0" encoding="UTF-8"?>
<svg width="15px" height="14px" viewBox="0 0 15 14" version="1.1" xmlns="http://www.w3.org/2000/svg" xmlns:xlink="http://www.w3.org/1999/xlink">
    <!-- Generator: Sketch 52.5 (67469) - http://www.bohemiancoding.com/sketch -->
    <title>Icon-plus</title>
    <desc>Created with Sketch.</desc>
    <g id="BrainFlix" stroke="none" stroke-width="1" fill="none" fill-rule="evenodd">
        <g id="Icon-plus" fill="#FFFFFF" fill-rule="nonzero">
            <path d="M8.35059172,6.46153846 L14.2115385,6.46153846 C14.5089226,6.46153846 14.75,6.7026159 14.75,7 C14.75,7.2973841 14.5089226,7.53846154 14.2115385,7.53846154 L8.35059172,7.53846154 L8.35059172,13.466716 C8.35059172,13.7612406 8.11183233,14 7.81730769,14 C7.52278306,14 7.28402367,13.7612406 7.28402367,13.466716 L7.28402367,7.53846154 L1.42307692,7.53846154 C1.12569283,7.53846154 0.884615385,7.2973841 0.884615385,7 C0.884615385,6.7026159 1.12569283,6.46153846 1.42307692,6.46153846 L7.28402367,6.46153846 L7.28402367,0.533284024 C7.28402367,0.23875939 7.52278306,5.41032975e-17 7.81730769,0 C8.11183233,-5.41032975e-17 8.35059172,0.23875939 8.35059172,0.533284024 L8.35059172,6.46153846 Z" id="Combined-Shape"></path>
        </g>
    </g>
</svg>